{
	"asset":{
		"copyright":"Miconaut",
		"generator":"Khronos glTF Blender I/O v3.6.27",
		"version":"2.0"
	},
	"scene":0,
	"scenes":[
		{
			"name":"Scene",
			"nodes":[
				0
			]
		}
	],
	"nodes":[
		{
			"mesh":0,
			"name":"Dea",
			"translation":[
				0,
				0.7800252437591553,
				0
			]
		}
	],
	"meshes":[
		{
			"name":"Cube.002",
			"primitives":[
				{
					"attributes":{
						"POSITION":0,
						"NORMAL":1,
						"TEXCOORD_0":2
					},
					"indices":3
				}
			]
		}
	],
	"accessors":[
		{
			"bufferView":0,
			"componentType":5126,
			"count":2231,
			"max":[
				0.21406398713588715,
				0.48123085498809814,
				0.612741231918335
			],
			"min":[
				-0.21406398713588715,
				-0.7793481945991516,
				-1.3613405227661133
			],
			"type":"VEC3"
		},
		{
			"bufferView":1,
			"componentType":5126,
			"count":2231,
			"type":"VEC3"
		},
		{
			"bufferView":2,
			"componentType":5126,
			"count":2231,
			"type":"VEC2"
		},
		{
			"bufferView":3,
			"componentType":5123,
			"count":4176,
			"type":"SCALAR"
		}
	],
	"bufferViews":[
		{
			"buffer":0,
			"byteLength":26772,
			"byteOffset":0,
			"target":34962
		},
		{
			"buffer":0,
			"byteLength":26772,
			"byteOffset":26772,
			"target":34962
		},
		{
			"buffer":0,
			"byteLength":17848,
			"byteOffset":53544,
			"target":34962
		},
		{
			"buffer":0,
			"byteLength":8352,
			"byteOffset":71392,
			"target":34963
		}
	],
	"buffers":[
		{
			"byteLength":79744,
			"uri":"data:application/octet-stream;base64,"
		}
	]
}
